<?xml version="1.0" encoding="UTF-8"?><svg id="Layer_1" xmlns="http://www.w3.org/2000/svg" viewBox="0 0 792 612"><defs><style>.cls-1{fill:none;}.cls-1,.cls-2{stroke-width:0px;}.cls-3{font-size:85.12px;}.cls-3,.cls-4,.cls-5,.cls-6,.cls-7,.cls-8{fill:#2a2c78;font-family:Montserrat-SemiBold, Montserrat;font-weight:600;}.cls-3,.cls-4,.cls-5,.cls-6,.cls-7,.cls-8,.cls-9{isolation:isolate;}.cls-4{font-size:85.12px;}.cls-5{font-size:85.12px;}.cls-6{font-size:85.12px;}.cls-7{font-size:85.12px;}.cls-8{font-size:85.12px;}.cls-2{fill:#6bcce1;}</style></defs><path class="cls-2" d="m451.99,218.01c-18.44-.72-31.19,1.43-41.15-2.11-28.36-11.35-58.16-21.99-84.41-39-58.16-36.88-118.46-15.61-133.32,51.78-4.26,18.44-4.98,38.28-3.55,57.44,4.98,100.7,39.71,192.91,84.41,281.58,4.98,9.92,12.07,19.16,19.88,26.97,19.88,20.55,37.6,19.16,51.78-7.09,6.37-12.07,9.92-25.53,14.18-38.28,4.26-12.75,4.98-27.64,12.07-39,7.09-11.35,19.88-23.42,31.19-24.82,9.92-1.43,24.82,10.64,31.19,20.55,9.92,15.61,14.9,35.45,22.7,52.5,9.2,19.88,13.46,46.8,39.71,49.63,27.64,2.83,39.71-21.99,50.35-41.86,45.41-82.26,73.05-170.21,72.34-263.85,0-33.34-5.66-67.4-15.61-98.59-10.64-33.34-48.95-56.04-79.43-51.07-43.98,7.09-87.23,17.73-138.3,28.36,23.42,12.75,41.15,22.7,65.96,36.88h0v-.04Z"/><path id="SVGID" class="cls-1" d="m451.99,218.01c-24.82-14.18-42.54-24.1-65.25-36.88,51.07-10.64,94.32-21.27,138.3-28.36,30.51-4.98,68.79,17.73,79.43,51.07,9.92,31.19,15.61,65.96,15.61,98.59.72,94.32-26.97,182.27-72.34,263.85-10.64,19.88-22.7,44.69-50.35,41.86-26.97-2.83-30.51-29.79-39.71-49.63-7.81-17.73-12.75-36.88-22.7-52.5-6.37-9.92-21.27-21.99-31.19-20.55-11.35,1.43-24.1,14.18-31.19,24.82s-7.81,25.53-12.07,39c-4.26,12.75-7.81,26.25-14.18,38.28-14.18,25.53-31.91,27.64-51.78,7.09-7.81-7.81-14.9-17.01-19.88-26.97-44.69-88.67-79.43-180.84-84.41-281.58-.72-19.16,0-39,3.55-57.44,14.18-67.4,74.49-88.67,132.64-51.78,26.25,16.33,55.33,26.97,84.41,39,9.92,3.55,22.7,1.43,41.15,2.11h0l-.04.04Z"/><path id="SVGID-2" class="cls-1" d="m655.53,422.27c-41.86,139.02-188.65,217.73-327.66,175.9-139.02-41.86-217.73-188.65-175.9-327.66,41.86-139.02,189.37-218.44,328.38-176.62,139.02,41.86,217.73,189.36,175.18,328.38Z"/><g class="cls-9"><text class="cls-5" transform="translate(123.15 316.14) rotate(-75.33)"><tspan x="0" y="0">C</tspan></text></g><g class="cls-9"><text class="cls-3" transform="translate(138.23 259.23) rotate(-64.4)"><tspan x="0" y="0">a</tspan></text></g><g class="cls-9"><text class="cls-4" transform="translate(159.06 214.57) rotate(-53.81)"><tspan x="0" y="0">n</tspan></text></g><g class="cls-9"><text class="cls-4" transform="translate(192.02 169.66) rotate(-43.29)"><tspan x="0" y="0">a</tspan></text></g><g class="cls-9"><text class="cls-8" transform="translate(228.87 135.98) rotate(-35.98)"><tspan x="0" y="0">l</tspan></text></g><g class="cls-9"><text class="cls-8" transform="translate(265.03 109.31) rotate(-22.31)"><tspan x="0" y="0">D</tspan></text></g><g class="cls-9"><text class="cls-3" transform="translate(327.79 84.27) rotate(-10.35)"><tspan x="0" y="0">e</tspan></text></g><g class="cls-9"><text class="cls-6" transform="translate(377.05 74.39) rotate(.93)"><tspan x="0" y="0">n</tspan></text></g><g class="cls-9"><text class="cls-3" transform="translate(433.36 75.71) rotate(9.3)"><tspan x="0" y="0">t</tspan></text></g><g class="cls-9"><text class="cls-8" transform="translate(467.07 80.46) rotate(17.79)"><tspan x="0" y="0">a</tspan></text></g><g class="cls-9"><text class="cls-8" transform="translate(514.33 96.42) rotate(25.18)"><tspan x="0" y="0">l</tspan></text></g><g class="cls-9"><text class="cls-4" transform="translate(555.14 115.61) rotate(38.4)"><tspan x="0" y="0">G</tspan></text></g><g class="cls-9"><text class="cls-7" transform="translate(604.09 155.81) rotate(48.12)"><tspan x="0" y="0">r</tspan></text></g><g class="cls-9"><text class="cls-7" transform="translate(626.68 179.62) rotate(56.62)"><tspan x="0" y="0">o</tspan></text></g><g class="cls-9"><text class="cls-7" transform="translate(655.84 223.1) rotate(67.51)"><tspan x="0" y="0">u</tspan></text></g><g class="cls-9"><text class="cls-7" transform="translate(677.26 274.17) rotate(78.79)"><tspan x="0" y="0">p</tspan></text></g></svg>